ModelForces
version=1
nRows=4
nColumns=155
inDegrees=no

This file contains the forces exerted on a model during a simulation.

A force is a generalized force, meaning that it can be either a force (N) or a torque (Nm).

Units are S.I. units (second, meters, Newtons, ...)
Angles are in degrees.

endheader
time	glut_med1_r	glut_med2_r	glut_med3_r	glut_min1_r	glut_min2_r	glut_min3_r	semimem_r	semiten_r	bifemlh_r	bifemsh_r	sar_r	add_long_r	add_brev_r	add_mag1_r	add_mag2_r	add_mag3_r	tfl_r	pect_r	grac_r	glut_max1_r	glut_max2_r	glut_max3_r	iliacus_r	psoas_r	quad_fem_r	gem_r	peri_r	rect_fem_r	vas_med_r	vas_int_r	vas_lat_r	med_gas_r	lat_gas_r	soleus_r	tib_post_r	flex_dig_r	flex_hal_r	tib_ant_r	per_brev_r	per_long_r	per_tert_r	ext_dig_r	ext_hal_r	glut_med1_l	glut_med2_l	glut_med3_l	glut_min1_l	glut_min2_l	glut_min3_l	semimem_l	semiten_l	bifemlh_l	bifemsh_l	sar_l	add_long_l	add_brev_l	add_mag1_l	add_mag2_l	add_mag3_l	tfl_l	pect_l	grac_l	glut_max1_l	glut_max2_l	glut_max3_l	iliacus_l	psoas_l	quad_fem_l	gem_l	peri_l	rect_fem_l	vas_med_l	vas_int_l	vas_lat_l	med_gas_l	lat_gas_l	soleus_l	tib_post_l	flex_dig_l	flex_hal_l	tib_ant_l	per_brev_l	per_long_l	per_tert_l	ext_dig_l	ext_hal_l	ercspn_r	ercspn_l	intobl_r	intobl_l	extobl_r	extobl_l	femur_lat_meniscii_r.femur_lat_r.force.X	femur_lat_meniscii_r.femur_lat_r.force.Y	femur_lat_meniscii_r.femur_lat_r.force.Z	femur_lat_meniscii_r.femur_lat_r.torque.X	femur_lat_meniscii_r.femur_lat_r.torque.Y	femur_lat_meniscii_r.femur_lat_r.torque.Z	femur_lat_meniscii_r.meniscus_lat_r.force.X	femur_lat_meniscii_r.meniscus_lat_r.force.Y	femur_lat_meniscii_r.meniscus_lat_r.force.Z	femur_lat_meniscii_r.meniscus_lat_r.torque.X	femur_lat_meniscii_r.meniscus_lat_r.torque.Y	femur_lat_meniscii_r.meniscus_lat_r.torque.Z	femur_med_meniscii_r.femur_med_r.force.X	femur_med_meniscii_r.femur_med_r.force.Y	femur_med_meniscii_r.femur_med_r.force.Z	femur_med_meniscii_r.femur_med_r.torque.X	femur_med_meniscii_r.femur_med_r.torque.Y	femur_med_meniscii_r.femur_med_r.torque.Z	femur_med_meniscii_r.meniscus_med_r.force.X	femur_med_meniscii_r.meniscus_med_r.force.Y	femur_med_meniscii_r.meniscus_med_r.force.Z	femur_med_meniscii_r.meniscus_med_r.torque.X	femur_med_meniscii_r.meniscus_med_r.torque.Y	femur_med_meniscii_r.meniscus_med_r.torque.Z	femur_med_tibia_r.tibia_upper_r.force.X	femur_med_tibia_r.tibia_upper_r.force.Y	femur_med_tibia_r.tibia_upper_r.force.Z	femur_med_tibia_r.tibia_upper_r.torque.X	femur_med_tibia_r.tibia_upper_r.torque.Y	femur_med_tibia_r.tibia_upper_r.torque.Z	femur_med_tibia_r.femur_med_r.force.X	femur_med_tibia_r.femur_med_r.force.Y	femur_med_tibia_r.femur_med_r.force.Z	femur_med_tibia_r.femur_med_r.torque.X	femur_med_tibia_r.femur_med_r.torque.Y	femur_med_tibia_r.femur_med_r.torque.Z	femur_lat_tibia_r.tibia_upper_r.force.X	femur_lat_tibia_r.tibia_upper_r.force.Y	femur_lat_tibia_r.tibia_upper_r.force.Z	femur_lat_tibia_r.tibia_upper_r.torque.X	femur_lat_tibia_r.tibia_upper_r.torque.Y	femur_lat_tibia_r.tibia_upper_r.torque.Z	femur_lat_tibia_r.femur_lat_r.force.X	femur_lat_tibia_r.femur_lat_r.force.Y	femur_lat_tibia_r.femur_lat_r.force.Z	femur_lat_tibia_r.femur_lat_r.torque.X	femur_lat_tibia_r.femur_lat_r.torque.Y	femur_lat_tibia_r.femur_lat_r.torque.Z	aACL_R	pACL_R	aPCL_R	pPCL_R	aMCL_R	mMCL_R	pMCL_R	aLCL_R	mLCL_R	pLCL_R	aPCL_L	pPCL_L	aMCL_L	aLCL_L
      0.20839243	      9.74738304	      7.17230331	      7.69991666	      3.33248008	      3.91022898	      4.12109926	      0.00000000	    164.48131409	    177.69753294	    336.38612334	    123.03902069	      7.12565076	      5.17927713	      3.68929461	      3.11888350	      5.19086599	      3.55894643	      2.81001340	     93.15285909	      4.62889675	      7.03911999	      5.27668692	     25.39206493	     16.07388968	      4.56794575	      3.30144638	      5.59037172	    113.32105280	     41.09676370	     31.67727550	     55.31080145	      0.00000000	      0.00000000	      0.00000000	      0.00000000	      0.00000000	      0.00000000	     33.75219520	      2.34010918	      5.01249032	     21.52924369	     47.88183694	     12.00541383	      9.74738304	      7.17230331	      7.69991666	      3.33248008	      3.91022898	      4.12109926	     10.56508545	      5.26134928	     10.30002610	      9.09049242	      1.90272740	      7.12565076	      5.17927713	      3.68929461	      3.11888350	      5.19086599	      4.84223409	      2.81001340	      1.95921887	      4.62889675	      7.03911999	      5.27668692	     25.39206493	     16.07388968	      4.56794575	      3.30144638	      5.59037172	     14.25530635	      0.00000000	      0.00000000	      0.00000000	     19.38656741	      9.05807454	     43.14833450	     47.34881093	      4.21329355	      3.67000483	     11.16858967	      5.91127369	     15.87806382	      2.48637692	      7.88674484	      2.52563830	     31.35727748	     31.35727748	     11.51153476	     11.51153476	     29.06377618	     29.06377618	     85.20097439	     53.13408250	      4.34585901	     -2.95706588	      1.97698776	     33.79347720	    -85.20097439	    -53.13408250	     -4.34585901	      1.38802011	     -2.32641768	      1.24007225	      0.08487558	     -0.00218515	     -0.05142310	      0.02043187	     -0.00133323	      0.03378039	     -0.08487558	      0.00218515	      0.05142310	     -0.00016236	      0.00249601	     -0.00037428	   -930.04289927	   -379.90463756	    322.83703371	     -8.51095503	     22.52495855	      2.20870843	    930.04289927	    379.90463756	   -322.83703371	    136.83432052	    -16.30491046	    374.79035699	   -347.59414399	   -154.98265472	    -95.10168802	      5.07290078	    -12.04786773	      1.10686478	    347.59414399	    154.98265472	     95.10168802	    -42.14886018	      8.52554113	    140.14494869	      0.00000000	      0.00000000	    968.60413229	    609.53137303	     24.70658860	      9.85030010	      0.00000000	      0.00000000	      0.00000000	      0.00000000	      0.00000000	      0.00000000	      0.00000001	      0.00000000
      0.20851742	      9.74378180	      7.16984228	      7.69724191	      3.33138472	      3.90903558	      4.11957646	      0.00000000	    164.54299880	    177.79750702	    336.42091449	    123.03168356	      7.12317691	      5.17759058	      3.68803837	      3.11779388	      5.18889006	      3.55629051	      2.80908340	     93.15845493	      4.62730508	      7.03669319	      5.27483682	     25.38756046	     16.06876591	      4.56641123	      3.30070775	      5.58841764	    113.37450036	     41.11659918	     31.70799386	     55.33665627	      0.00000000	      0.00000000	      0.00000000	      0.00000000	      0.00000000	      0.00000000	     33.73228016	      2.33084928	      5.00512725	     21.50488208	     47.82646428	     11.98959094	      9.74378180	      7.16984228	      7.69724191	      3.33138472	      3.90903558	      4.11957646	     10.56760850	      5.25941663	     10.29584244	      9.08743577	      1.90210491	      7.12317691	      5.17759058	      3.68803837	      3.11779388	      5.18889006	      4.84101129	      2.80908340	      1.95856657	      4.62730508	      7.03669319	      5.27483682	     25.38756046	     16.06876591	      4.56641123	      3.30070775	      5.58841764	     14.24948550	      0.00000000	      0.00000000	      0.00000000	     19.38059101	      9.05510598	     43.13039336	     47.34093367	      4.20953084	      3.66662128	     11.16417243	      5.90876327	     15.87290102	      2.48558633	      7.88499818	      2.52512815	     31.34694710	     31.34694710	     11.50741957	     11.50741957	     29.06006578	     29.06006578	     85.06983580	     53.35626297	      4.48333725	     -3.01842062	      1.97493133	     33.73591629	    -85.06983580	    -53.35626297	     -4.48333725	      1.39583630	     -2.32807137	      1.25480746	      0.08146632	     -0.00148091	     -0.04990067	      0.01983353	     -0.00127765	      0.03241769	     -0.08146632	      0.00148091	      0.04990067	     -0.00016110	      0.00240880	     -0.00033465	   -930.97678376	   -379.08511490	    323.72638832	     -8.49326338	     22.56713093	      2.20913892	    930.97678376	    379.08511490	   -323.72638832	    137.17465591	    -16.32456123	    375.16465143	   -347.89656025	   -154.25986686	    -95.27163275	      5.05459460	    -12.06430888	      1.09044460	    347.89656025	    154.25986686	     95.27163275	    -42.20146042	      8.53419146	    140.27190949	      0.00000000	      0.00000000	    969.60937192	    610.37733629	     24.59397482	      9.80189454	      0.00000000	      0.00000000	      0.00000000	      0.00000000	      0.00000000	      0.00000000	      0.00000001	      0.00000000
      0.20855803	      9.74261300	      7.16904355	      7.69637382	      3.33102922	      3.90864827	      4.11908224	      0.00000000	    164.56240756	    177.82876388	    336.42781837	    123.02876000	      7.12237402	      5.17704320	      3.68763065	      3.11744024	      5.18824878	      3.55543332	      2.80878157	     93.15980092	      4.62678851	      7.03590558	      5.27423637	     25.38609855	     16.06710302	      4.56591320	      3.30046803	      5.58778298	    113.43366244	     41.12254747	     31.72301800	     55.34463609	      0.00000000	      0.00000000	      0.00000000	      0.00000000	      0.00000000	      0.00000000	     33.72590193	      2.32782380	      5.00269453	     21.49695199	     47.80862864	     11.98449805	      9.74261300	      7.16904355	      7.69637382	      3.33102922	      3.90864827	      4.11908224	     10.56841723	      5.25878940	     10.29448452	      9.08644373	      1.90190288	      7.12237402	      5.17704320	      3.68763065	      3.11744024	      5.18824878	      4.84061443	      2.80878157	      1.95835487	      4.62678851	      7.03590558	      5.27423637	     25.38609855	     16.06710302	      4.56591320	      3.30046803	      5.58778298	     14.24759631	      0.00000000	      0.00000000	      0.00000000	     19.37864931	      9.05414165	     43.12456917	     47.33837690	      4.20830864	      3.66552315	     11.16273878	      5.90794847	     15.87122518	      2.48532975	      7.88443044	      2.52496219	     31.34359435	     31.34359435	     11.50608400	     11.50608400	     29.05886158	     29.05886158	     85.03498231	     53.45367938	      4.55212626	     -3.04860181	      1.97475681	     33.72006014	    -85.03498231	    -53.45367938	     -4.55212626	      1.39917826	     -2.32977774	      1.26048916	      0.08036453	     -0.00125668	     -0.04941140	      0.01964123	     -0.00125970	      0.03197735	     -0.08036453	      0.00125668	      0.04941140	     -0.00016069	      0.00238070	     -0.00032201	   -931.23088465	   -379.22278633	    323.82827681	     -8.49053120	     22.57285725	      2.22593289	    931.23088465	    379.22278633	   -323.82827681	    137.21558709	    -16.32790487	    375.26110165	   -347.91586260	   -154.33634570	    -95.27593569	      5.05530071	    -12.06572207	      1.09879220	    347.91586260	    154.33634570	     95.27593569	    -42.20428260	      8.53466957	    140.27677890	      0.00000000	      0.00000000	    969.93485865	    610.64746390	     24.55848211	      9.78627689	      0.00000000	      0.00000000	      0.00000000	      0.00000000	      0.00000000	      0.00000000	      0.00000001	      0.00000000
      0.20857833	      9.74202884	      7.16864435	      7.69593995	      3.33085154	      3.90845469	      4.11883523	      0.00000000	    164.57201451	    177.84418940	    336.43060635	    123.02721970	      7.12197274	      5.17676962	      3.68742686	      3.11726350	      5.18792827	      3.55500578	      2.80863072	     93.16040341	      4.62653033	      7.03551193	      5.27393627	     25.38536789	     16.06627191	      4.56566429	      3.30034822	      5.58746570	    113.46558386	     41.12544649	     31.73110841	     55.34857677	      0.00000000	      0.00000000	      0.00000000	      0.00000000	      0.00000000	      0.00000000	     33.72272814	      2.32630823	      5.00147105	     21.49298388	     47.79973803	     11.98195998	      9.74202884	      7.16864435	      7.69593995	      3.33085154	      3.90845469	      4.11883523	     10.56881959	      5.25847591	     10.29380582	      9.08594791	      1.90180190	      7.12197274	      5.17676962	      3.68742686	      3.11726350	      5.18792827	      4.84041608	      2.80863072	      1.95824906	      4.62653033	      7.03551193	      5.27393627	     25.38536789	     16.06627191	      4.56566429	      3.30034822	      5.58746570	     14.24665209	      0.00000000	      0.00000000	      0.00000000	     19.37767848	      9.05365952	     43.12165799	     47.33709900	      4.20769760	      3.66497431	     11.16202223	      5.90754123	     15.87038754	      2.48520151	      7.88414652	      2.52487916	     31.34191865	     31.34191865	     11.50541648	     11.50541648	     29.05825972	     29.05825972	     85.00764269	     53.50378146	      4.56607430	     -3.05541677	      1.97412180	     33.70808704	    -85.00764269	    -53.50378146	     -4.56607430	      1.40063960	     -2.32950183	      1.26350374	      0.07984291	     -0.00114944	     -0.04917289	      0.01954744	     -0.00125121	      0.03176885	     -0.07984291	      0.00114944	      0.04917289	     -0.00016046	      0.00236721	     -0.00031596	   -931.40113362	   -379.20373201	    323.83539731	     -8.48767414	     22.57448699	      2.23038044	    931.40113362	    379.20373201	   -323.83539731	    137.21704132	    -16.32964932	    375.32792631	   -347.92647321	   -154.37263168	    -95.27825899	      5.05561004	    -12.06645799	      1.10287348	    347.92647321	    154.37263168	     95.27825899	    -42.20572287	      8.53493096	    140.27963080	      0.00000000	      0.00000000	    970.09698669	    610.78042079	     24.54131622	      9.77860375	      0.00000000	      0.00000000	      0.00000000	      0.00000000	      0.00000000	      0.00000000	      0.00000001	      0.00000000
